HIERARCHY
ROOT Root
{
  OFFSET 0.0 0.0 0.0
  CHANNELS 6 Xposition Yposition Zposition Zrotation Yrotation Xrotation
  JOINT Hips
  {
    OFFSET 0.0 100.0 0.0
    CHANNELS 6 Xposition Yposition Zposition Zrotation Yrotation Xrotation
    JOINT Spine1
    {
      OFFSET 5.003913 -0.037094 -0.013727
      CHANNELS 3 Zrotation Yrotation Xrotation
      JOINT Spine2
      {
        OFFSET 7.125363 -1e-06 0.0
        CHANNELS 3 Zrotation Yrotation Xrotation
        JOINT Chest
        {
          OFFSET 7.594027 1e-06 0.0
          CHANNELS 3 Zrotation Yrotation Xrotation
          JOINT Neck1
          {
            OFFSET 26.313086 -0.460272 -0.181672
            CHANNELS 3 Zrotation Yrotation Xrotation
            JOINT Neck2
            {
              OFFSET 8.045911 0.0 0.0
              CHANNELS 3 Zrotation Yrotation Xrotation
              JOINT Head
              {
                OFFSET 6.432774 0.0 0.0
                CHANNELS 3 Zrotation Yrotation Xrotation
                JOINT HeadEnd
                {
                  OFFSET 16.169773 0.06451 0.00362
                  CHANNELS 3 Zrotation Yrotation Xrotation
                }
                JOINT Jaw
                {
                  OFFSET 0.108741 3.12938 0.002639
                  CHANNELS 3 Zrotation Yrotation Xrotation
                }
                JOINT LeftEye
                {
                  OFFSET 4.45173 8.166359 3.206392
                  CHANNELS 3 Zrotation Yrotation Xrotation
                }
                JOINT RightEye
                {
                  OFFSET 4.436895 8.135758 -3.222429
                  CHANNELS 3 Zrotation Yrotation Xrotation
                }
              }
            }
          }
          JOINT LeftShoulder
          {
            OFFSET 23.218927 5.195579 1.621656
            CHANNELS 3 Zrotation Yrotation Xrotation
            JOINT LeftArm
            {
              OFFSET 15.902118 2e-06 -2e-06
              CHANNELS 3 Zrotation Yrotation Xrotation
              JOINT LeftForeArm
              {
                OFFSET 28.739307 0.0 -1e-06
                CHANNELS 3 Zrotation Yrotation Xrotation
                JOINT LeftHand
                {
                  OFFSET 27.093981 -4e-06 0.0
                  CHANNELS 3 Zrotation Yrotation Xrotation
                  JOINT LeftHandThumb1
                  {
                    OFFSET 2.276781 3.380274 0.83384
                    CHANNELS 3 Zrotation Yrotation Xrotation
                    JOINT LeftHandThumb2
                    {
                      OFFSET 4.705309 -1e-06 -1e-06
                      CHANNELS 3 Zrotation Yrotation Xrotation
                      JOINT LeftHandThumb3
                      {
                        OFFSET 2.798515 0.0 3e-06
                        CHANNELS 3 Zrotation Yrotation Xrotation
                        JOINT LeftHandThumbEnd
                        {
                          OFFSET 3.180793 4e-06 -4e-06
                          CHANNELS 3 Zrotation Yrotation Xrotation
                        }
                      }
                    }
                  }
                  JOINT LeftHandIndex1
                  {
                    OFFSET 3.247786 2.352677 0.137192
                    CHANNELS 3 Zrotation Yrotation Xrotation
                    JOINT LeftHandIndex2
                    {
                      OFFSET 6.367095 1e-06 0.0
                      CHANNELS 3 Zrotation Yrotation Xrotation
                      JOINT LeftHandIndex3
                      {
                        OFFSET 3.662364 0.0 0.0
                        CHANNELS 3 Zrotation Yrotation Xrotation
                        JOINT LeftHandIndex4
                        {
                          OFFSET 2.329242 4e-06 -4e-06
                          CHANNELS 3 Zrotation Yrotation Xrotation
                          JOINT LeftHandIndexEnd
                          {
                            OFFSET 2.767823 1e-06 0.0
                            CHANNELS 3 Zrotation Yrotation Xrotation
                          }
                        }
                      }
                    }
                  }
                  JOINT LeftHandMiddle1
                  {
                    OFFSET 3.163612 0.945023 -0.406112
                    CHANNELS 3 Zrotation Yrotation Xrotation
                    JOINT LeftHandMiddle2
                    {
                      OFFSET 6.276789 3e-06 0.0
                      CHANNELS 3 Zrotation Yrotation Xrotation
                      JOINT LeftHandMiddle3
                      {
                        OFFSET 4.35652 -1e-06 4e-06
                        CHANNELS 3 Zrotation Yrotation Xrotation
                        JOINT LeftHandMiddle4
                        {
                          OFFSET 2.996877 0.0 8e-06
                          CHANNELS 3 Zrotation Yrotation Xrotation
                          JOINT LeftHandMiddleEnd
                          {
                            OFFSET 2.323256 3e-06 -4e-06
                            CHANNELS 3 Zrotation Yrotation Xrotation
                          }
                        }
                      }
                    }
                  }
                  JOINT LeftHandRing1
                  {
                    OFFSET 2.882606 -0.309162 0.107445
                    CHANNELS 3 Zrotation Yrotation Xrotation
                    JOINT LeftHandRing2
                    {
                      OFFSET 6.033198 0.0 4e-06
                      CHANNELS 3 Zrotation Yrotation Xrotation
                      JOINT LeftHandRing3
                      {
                        OFFSET 4.350578 3e-06 0.0
                        CHANNELS 3 Zrotation Yrotation Xrotation
                        JOINT LeftHandRing4
                        {
                          OFFSET 2.651321 2e-06 -7e-06
                          CHANNELS 3 Zrotation Yrotation Xrotation
                          JOINT LeftHandRingEnd
                          {
                            OFFSET 1.937663 1e-06 -4e-06
                            CHANNELS 3 Zrotation Yrotation Xrotation
                          }
                        }
                      }
                    }
                  }
                  JOINT LeftHandPinky1
                  {
                    OFFSET 2.865315 -1.525436 0.575687
                    CHANNELS 3 Zrotation Yrotation Xrotation
                    JOINT LeftHandPinky2
                    {
                      OFFSET 5.54936 1e-06 -8e-06
                      CHANNELS 3 Zrotation Yrotation Xrotation
                      JOINT LeftHandPinky3
                      {
                        OFFSET 3.070974 0.0 -4e-06
                        CHANNELS 3 Zrotation Yrotation Xrotation
                        JOINT LeftHandPinky4
                        {
                          OFFSET 1.549672 1e-06 0.0
                          CHANNELS 3 Zrotation Yrotation Xrotation
                          JOINT LeftHandPinkyEnd
                          {
                            OFFSET 1.952123 0.0 0.0
                            CHANNELS 3 Zrotation Yrotation Xrotation
                          }
                        }
                      }
                    }
                  }
                }
              }
            }
          }
          JOINT RightShoulder
          {
            OFFSET 23.161716 5.296122 -1.380114
            CHANNELS 3 Zrotation Yrotation Xrotation
            JOINT RightArm
            {
              OFFSET -16.027195 -2e-06 1.1e-05
              CHANNELS 3 Zrotation Yrotation Xrotation
              JOINT RightForeArm
              {
                OFFSET -28.736639 4e-06 2e-06
                CHANNELS 3 Zrotation Yrotation Xrotation
                JOINT RightHand
                {
                  OFFSET -27.133619 6e-06 0.0
                  CHANNELS 3 Zrotation Yrotation Xrotation
                  JOINT RightHandThumb1
                  {
                    OFFSET -2.274328 -3.351035 -0.83067
                    CHANNELS 3 Zrotation Yrotation Xrotation
                    JOINT RightHandThumb2
                    {
                      OFFSET -4.703594 -3e-06 2e-06
                      CHANNELS 3 Zrotation Yrotation Xrotation
                      JOINT RightHandThumb3
                      {
                        OFFSET -2.794935 -4e-06 -3e-06
                        CHANNELS 3 Zrotation Yrotation Xrotation
                        JOINT RightHandThumbEnd
                        {
                          OFFSET -3.183852 4e-06 1e-06
                          CHANNELS 3 Zrotation Yrotation Xrotation
                        }
                      }
                    }
                  }
                  JOINT RightHandIndex1
                  {
                    OFFSET -3.253496 -2.33755 -0.127667
                    CHANNELS 3 Zrotation Yrotation Xrotation
                    JOINT RightHandIndex2
                    {
                      OFFSET -6.344434 0.0 0.0
                      CHANNELS 3 Zrotation Yrotation Xrotation
                      JOINT RightHandIndex3
                      {
                        OFFSET -3.654871 0.0 -8e-06
                        CHANNELS 3 Zrotation Yrotation Xrotation
                        JOINT RightHandIndex4
                        {
                          OFFSET -2.327586 -1e-06 0.0
                          CHANNELS 3 Zrotation Yrotation Xrotation
                          JOINT RightHandIndexEnd
                          {
                            OFFSET -2.770001 3e-06 8e-06
                            CHANNELS 3 Zrotation Yrotation Xrotation
                          }
                        }
                      }
                    }
                  }
                  JOINT RightHandMiddle1
                  {
                    OFFSET -3.168223 -0.944764 0.411762
                    CHANNELS 3 Zrotation Yrotation Xrotation
                    JOINT RightHandMiddle2
                    {
                      OFFSET -6.266691 -1e-06 -4e-06
                      CHANNELS 3 Zrotation Yrotation Xrotation
                      JOINT RightHandMiddle3
                      {
                        OFFSET -4.348901 0.0 0.0
                        CHANNELS 3 Zrotation Yrotation Xrotation
                        JOINT RightHandMiddle4
                        {
                          OFFSET -3.00024 2e-06 -4e-06
                          CHANNELS 3 Zrotation Yrotation Xrotation
                          JOINT RightHandMiddleEnd
                          {
                            OFFSET -2.321477 -4e-06 -4e-06
                            CHANNELS 3 Zrotation Yrotation Xrotation
                          }
                        }
                      }
                    }
                  }
                  JOINT RightHandRing1
                  {
                    OFFSET -2.885654 0.293261 -0.119232
                    CHANNELS 3 Zrotation Yrotation Xrotation
                    JOINT RightHandRing2
                    {
                      OFFSET -6.032835 -1e-06 -4e-06
                      CHANNELS 3 Zrotation Yrotation Xrotation
                      JOINT RightHandRing3
                      {
                        OFFSET -4.33881 0.0 -4e-06
                        CHANNELS 3 Zrotation Yrotation Xrotation
                        JOINT RightHandRing4
                        {
                          OFFSET -2.654903 -4e-06 -4e-06
                          CHANNELS 3 Zrotation Yrotation Xrotation
                          JOINT RightHandRingEnd
                          {
                            OFFSET -1.935122 0.0 4e-06
                            CHANNELS 3 Zrotation Yrotation Xrotation
                          }
                        }
                      }
                    }
                  }
                  JOINT RightHandPinky1
                  {
                    OFFSET -2.866241 1.503904 -0.60527
                    CHANNELS 3 Zrotation Yrotation Xrotation
                    JOINT RightHandPinky2
                    {
                      OFFSET -5.553177 -2e-06 0.0
                      CHANNELS 3 Zrotation Yrotation Xrotation
                      JOINT RightHandPinky3
                      {
                        OFFSET -3.062664 -1e-06 -4e-06
                        CHANNELS 3 Zrotation Yrotation Xrotation
                        JOINT RightHandPinky4
                        {
                          OFFSET -1.546529 2e-06 4e-06
                          CHANNELS 3 Zrotation Yrotation Xrotation
                          JOINT RightHandPinkyEnd
                          {
                            OFFSET -1.952341 0.0 -4e-06
                            CHANNELS 3 Zrotation Yrotation Xrotation
                          }
                        }
                      }
                    }
                  }
                }
              }
            }
          }
        }
      }
    }
    JOINT LeftLeg
    {
      OFFSET -8.443107 2.567604 10.043214
      CHANNELS 3 Zrotation Yrotation Xrotation
      JOINT LeftShin
      {
        OFFSET 43.229198 1e-06 -1e-06
        CHANNELS 3 Zrotation Yrotation Xrotation
        JOINT LeftFoot
        {
          OFFSET 42.298611 1e-06 1e-06
          CHANNELS 3 Zrotation Yrotation Xrotation
          JOINT LeftToeBase
          {
            OFFSET 14.165858 1e-06 0.0
            CHANNELS 3 Zrotation Yrotation Xrotation
            JOINT LeftToeEnd
            {
              OFFSET 6.7141 -0.234461 0.0
              CHANNELS 3 Zrotation Yrotation Xrotation
            }
          }
        }
      }
    }
    JOINT RightLeg
    {
      OFFSET -8.303923 2.592729 -10.047278
      CHANNELS 3 Zrotation Yrotation Xrotation
      JOINT RightShin
      {
        OFFSET -43.369682 0.0 1e-06
        CHANNELS 3 Zrotation Yrotation Xrotation
        JOINT RightFoot
        {
          OFFSET -42.260784 4e-06 2e-06
          CHANNELS 3 Zrotation Yrotation Xrotation
          JOINT RightToeBase
          {
            OFFSET -14.222245 -2e-06 -1e-06
            CHANNELS 3 Zrotation Yrotation Xrotation
            JOINT RightToeEnd
            {
              OFFSET -6.660062 0.232574 -2e-06
              CHANNELS 3 Zrotation Yrotation Xrotation
            }
          }
        }
      }
    }
  }
}
MOTION
Frames: 4
Frame Time: 0.03333333333333333
0.0 0.0 0.0 0.0 -0.0 0.0 2.535473 99.842537 -4.749357 91.12851 1.033499 88.641418 -2.455616 0.117228 -0.144845 -11.720979 -0.482368 -0.166162 16.95335 -0.194398 -2.802972 17.396421 -2.05104 2.663384 -2.499668 -0.649239 0.221684 -30.937277 0.511092 -1.264693 7e-06 0.0 -0.0 0.004535 0.039277 0.102795 0.027324 0.023782 0.113165 0.083138 0.046078 0.097445 -89.711884 -77.989861 97.152641 26.250263 -8.777872 -47.063908 68.390442 1.103635 -1.136137 18.839827 19.192032 1.263306 17.636629 -26.322731 52.41119 -19.46666 -14.3956 29.410389 1e-06 -8.774823 -2e-06 15.43895 -17.77314 6.449327 -0.609777 -1.795655 -3.889327 -4.807089 -11.046813 -2.93785 3e-06 -20.976019 0.0 -5.019971 -25.03356 -4.031882 6e-06 0.0 0.0 -10.634534 -5.686967 -3.565588 10.573271 -17.922951 -3.113899 4e-06 -13.821206 -0.0 -0.501779 -31.181505 -4.027016 -11.983842 -60.74625 7.934113 -13.982714 -7.150198 -2.87504 13.77273 -8.401495 -3.218241 0.347734 -34.211544 0.771654 -0.963029 -17.73337 2.621019 -0.0 0.0 1e-06 -17.34642 -20.095219 -4.201778 21.757557 -1.638376 3.866429 1e-06 -6.338825 1e-06 -1.697591 -22.591749 -6.194006 0.0 -4e-06 -1e-06 109.307281 -83.07029 81.115082 20.308868 -17.23959 -59.600273 74.369347 -1.082306 0.864442 -0.567678 35.129509 -13.306306 22.182116 -20.375891 49.9333 -16.701807 -16.743521 28.476519 -3e-06 -12.690595 -0.0 16.145514 -17.139362 2.848399 -0.10592 -1.513856 -4.27588 -5.039038 -5.612868 -2.953556 4e-06 -11.02052 -1e-06 -6.111293 -15.895328 -3.840468 -0.0 -1e-06 -1e-06 -10.283365 -5.680287 -4.341837 11.02829 -11.302402 -2.372632 -1.384269 -14.238576 -6.320117 -0.62544 -26.924183 -3.827597 -4.715849 -50.511673 -3.339397 -13.708521 -7.363473 -3.720939 18.141146 -14.052737 -3.242671 6e-06 -18.787266 -0.0 -0.429712 -8.456039 2.555501 0.0 0.0 -0.0 -15.923531 -20.094481 -5.473583 30.419205 -7.190825 1.735928 4e-06 -8.162921 -0.0 -1.861903 -22.861467 -6.167941 -1e-06 -3e-06 0.0 178.044495 -0.516806 -1.97257 14.449774 -0.053077 -0.112036 -80.433113 -3.671217 -4.078062 -4.201524 1.363245 2.131274 -1.0 -0.0 -0.0 -3.552866 -6.924458 -4.323523 16.154448 0.067589 0.059574 -80.05674 -1.138203 -6.407725 -4.568943 0.733067 1.698992 -1.000002 -0.0 -0.0 
0.0 0.0 0.0 0.0 -0.0 0.0 2.50593 99.84021 -4.764949 91.0998 0.991074 88.607277 -2.408233 0.122714 -0.13327 -11.696855 -0.470866 -0.167388 16.889219 -0.14144 -2.851086 17.154186 -2.088819 2.619211 -2.481822 -0.656182 0.313139 -31.117918 0.475557 -1.247088 7e-06 -0.0 -0.0 0.005421 0.04604 0.124689 0.044974 0.032641 0.136252 0.100329 0.050606 0.118358 -89.271561 -78.044853 96.642494 26.366039 -8.40045 -47.877136 69.405464 1.20948 -1.123677 18.768976 18.99585 0.440273 17.636629 -26.322731 52.41119 -19.466663 -14.3956 29.410393 0.0 -8.774821 -0.0 15.448962 -17.764936 6.425303 -0.609776 -1.795653 -3.889327 -4.80709 -11.046816 -2.93785 5e-06 -20.976019 -2e-06 -5.019969 -25.03356 -4.031881 6e-06 0.0 -1e-06 -10.634535 -5.686973 -3.565589 10.573275 -17.922951 -3.113902 4e-06 -13.821206 0.0 -0.501778 -31.181505 -4.027015 -11.874049 -60.577419 7.834694 -13.982714 -7.150198 -2.875042 13.772731 -8.401495 -3.218241 0.347735 -34.211555 0.771653 -0.963029 -17.73337 2.62102 -1e-06 0.0 0.0 -17.346416 -20.095217 -4.201782 21.757557 -1.638377 3.866427 1e-06 -6.338825 -0.0 -1.697587 -22.591745 -6.194007 0.0 -3e-06 -4e-06 109.706673 -83.05867 80.664261 20.188686 -16.972525 -59.903801 75.445808 -0.985992 0.83676 -0.197444 35.038616 -12.377459 22.182112 -20.375891 49.933323 -16.701815 -16.743528 28.476532 -2e-06 -12.690601 -1e-06 16.160345 -17.140223 2.869089 -0.105922 -1.513857 -4.275881 -5.039039 -5.61287 -2.953557 3e-06 -11.020521 -2e-06 -6.111294 -15.895332 -3.840471 -1e-06 1e-06 -1e-06 -10.283372 -5.680288 -4.341839 11.028296 -11.302406 -2.372635 -1.384269 -14.238581 -6.320121 -0.625438 -26.924187 -3.8276 -4.749584 -50.567547 -3.322064 -13.708522 -7.363477 -3.720938 18.14115 -14.052739 -3.242676 7e-06 -18.78727 -0.0 -0.429712 -8.456043 2.555501 -0.0 0.0 -1e-06 -15.923536 -20.094482 -5.473585 30.41921 -7.190826 1.735925 4e-06 -8.162922 1e-06 -1.861902 -22.861473 -6.167944 -1e-06 -2e-06 1e-06 177.952988 -0.562234 -1.937629 14.55792 -0.055249 -0.109106 -80.482277 -3.687125 -4.073616 -4.211121 1.374498 2.130316 -1.0 0.0 -0.0 -3.627678 -6.874604 -4.235863 16.193626 0.073931 0.056906 -80.058502 -1.206849 -6.353614 -4.597465 0.730272 1.694166 -1.000003 0.0 0.0 
0.0 0.0 0.0 0.0 -0.0 0.0 2.478349 99.838676 -4.760533 91.079651 0.942375 88.58342 -2.361882 0.118629 -0.142624 -11.68773 -0.460352 -0.183308 16.813578 -0.09922 -2.872743 16.919342 -2.127594 2.583327 -2.471895 -0.655334 0.418605 -31.301624 0.408096 -1.188142 7e-06 -0.0 0.0 0.006057 0.052824 0.145589 0.05663 0.040881 0.1564 0.110336 0.055881 0.13973 -88.789986 -78.098549 96.092262 26.521694 -8.0916 -48.641788 70.380547 1.321177 -1.089944 18.704527 18.812138 -0.267594 17.636633 -26.322725 52.411179 -19.466661 -14.395594 29.410381 1e-06 -8.774822 -2e-06 15.444549 -17.746311 6.38133 -0.609776 -1.795656 -3.889328 -4.807092 -11.046812 -2.937848 3e-06 -20.976015 0.0 -5.01997 -25.033556 -4.031882 7e-06 0.0 -1e-06 -10.634533 -5.686973 -3.565587 10.57327 -17.922951 -3.113899 1e-06 -13.821209 2e-06 -0.501779 -31.181505 -4.027017 -11.766605 -60.324635 7.738243 -13.982713 -7.1502 -2.87504 13.772728 -8.401491 -3.218242 0.34773 -34.211544 0.771655 -0.963029 -17.73337 2.621018 0.0 0.0 1e-06 -17.346422 -20.095217 -4.201779 21.757559 -1.638375 3.866428 1e-06 -6.338823 1e-06 -1.697591 -22.591745 -6.194008 2e-06 -3e-06 -3e-06 110.02256 -83.033676 80.310951 20.121998 -16.738968 -60.21574 76.495689 -0.893669 0.82188 0.076353 34.956314 -11.588696 22.182102 -20.375893 49.933308 -16.701809 -16.743528 28.476526 0.0 -12.690597 1e-06 16.188684 -17.159945 2.873658 -0.105918 -1.513855 -4.27588 -5.039042 -5.612871 -2.953557 5e-06 -11.020523 -1e-06 -6.111298 -15.895334 -3.840467 -2e-06 1e-06 -1e-06 -10.283368 -5.680288 -4.341836 11.02829 -11.302405 -2.372633 -1.38427 -14.238579 -6.32012 -0.625439 -26.924187 -3.827595 -4.77683 -50.56345 -3.289571 -13.70852 -7.363477 -3.720937 18.141146 -14.052738 -3.242674 4e-06 -18.787266 0.0 -0.429713 -8.456043 2.555501 1e-06 1e-06 -0.0 -15.923532 -20.094482 -5.47358 30.419201 -7.190822 1.735922 4e-06 -8.162925 1e-06 -1.861903 -22.861473 -6.167942 -2e-06 -2e-06 -1e-06 177.87854 -0.59888 -1.89596 14.630125 -0.058172 -0.113793 -80.521744 -3.698184 -4.080359 -4.213618 1.378419 2.12782 -1.0 0.0 -0.0 -3.688281 -6.843392 -4.226022 16.225912 0.078247 0.048884 -80.070961 -1.219825 -6.307748 -4.584929 0.726661 1.691095 -1.000003 0.0 -0.0 
0.0 0.0 0.0 0.0 -0.0 0.0 2.456701 99.832344 -4.737524 91.07206 0.901527 88.560196 -2.319278 0.102931 -0.175487 -11.684959 -0.465136 -0.218916 16.733795 -0.071198 -2.862347 16.698082 -2.168897 2.570166 -2.476324 -0.647942 0.531267 -31.435516 0.343474 -1.077119 6e-06 -0.0 0.0 0.003614 0.057524 0.158786 0.055314 0.046778 0.167043 0.107071 0.059454 0.15498 -88.299065 -78.132576 95.575752 26.673273 -7.851805 -49.439217 71.337563 1.404893 -1.050333 18.646488 18.635662 -0.736201 17.636639 -26.322737 52.411201 -19.466665 -14.395602 29.410393 -0.0 -8.774823 -1e-06 15.428315 -17.713076 6.325631 -0.609776 -1.795652 -3.889325 -4.807091 -11.046814 -2.93785 4e-06 -20.976021 -0.0 -5.019973 -25.03356 -4.031881 6e-06 -0.0 1e-06 -10.634537 -5.686972 -3.565587 10.573275 -17.922958 -3.113902 3e-06 -13.821213 1e-06 -0.50178 -31.181511 -4.027017 -11.674989 -60.071953 7.636581 -13.982718 -7.150199 -2.875041 13.772734 -8.401497 -3.21824 0.347734 -34.211559 0.771657 -0.963029 -17.733376 2.621021 1e-06 -0.0 1e-06 -17.346424 -20.095221 -4.201783 21.757566 -1.638375 3.866431 2e-06 -6.338827 -0.0 -1.69759 -22.591749 -6.194006 1e-06 -4e-06 -2e-06 110.110878 -83.025909 80.209824 20.076262 -16.526903 -60.514095 77.494995 -0.810022 0.850267 0.21565 34.914635 -10.971056 22.182114 -20.375895 49.933327 -16.701815 -16.743534 28.47653 -3e-06 -12.690603 0.0 16.243954 -17.198593 2.891247 -0.10592 -1.513856 -4.275882 -5.039042 -5.612871 -2.953557 4e-06 -11.020523 -3e-06 -6.1113 -15.895334 -3.840469 0.0 2e-06 0.0 -10.283373 -5.680288 -4.341836 11.028296 -11.302404 -2.372634 -1.384269 -14.238579 -6.320123 -0.625435 -26.924191 -3.827603 -4.786829 -50.578716 -3.266644 -13.708528 -7.363476 -3.720938 18.141153 -14.052739 -3.242676 6e-06 -18.787268 1e-06 -0.429712 -8.456043 2.555504 1e-06 -0.0 0.0 -15.923538 -20.094482 -5.473584 30.419218 -7.190827 1.735924 3e-06 -8.162922 1e-06 -1.861903 -22.861467 -6.167941 -1e-06 -2e-06 -1e-06 177.820984 -0.621296 -1.849029 14.712118 -0.057993 -0.125471 -80.579758 -3.706243 -4.111053 -4.224247 1.372481 2.125824 -0.999999 0.0 -0.0 -3.745204 -6.824082 -4.235021 16.302288 0.079442 0.035605 -80.128479 -1.203625 -6.269087 -4.554451 0.720662 1.68854 -1.000001 0.0 -0.0 
